# xmcd
# 
# Track frame offsets:
#     150
#     34567
#     70517
#     90095
#     131920
#     164109
#     216180
#     240227
#     259787
#     294277
#     321650
# 
# Disc length: 4562
# 
# Revision: 5
# Processed by: cddbd v1.5.2PL0 Copyright (c) Steve Scherf et al.
# Submitted via: fre:ac v1.0.27
# 
DISCID=9811d00b
DTITLE=Dave Holland - Selected Recordings
DYEAR=2004
DGENRE=Jazz
TTITLE0=How's Never
TTITLE1=You I Love
TTITLE2=Inception
TTITLE3=The Balance
TTITLE4=Equality
TTITLE5=Nemesis
TTITLE6=Shifting Sands
TTITLE7=Four Winds
TTITLE8=Prime Directive
TTITLE9=Homecoming
TTITLE10=Conference Of The Birds
EXTD=Dave Holland\nSelected Recordings\nECM\n:rarum X\n2004 ID3G:   8 YEAR: 2004
EXTT0=
EXTT1=
EXTT2=
EXTT3=
EXTT4=
EXTT5=
EXTT6=
EXTT7=
EXTT8=
EXTT9=
EXTT10=
PLAYORDER=
